<svg xmlns="http://www.w3.org/2000/svg" width="1322" height="1072" viewBox="0 0 1322 1072">
  <defs>
    <style>
      .cls-1 {
        fill: #e93b92;
        fill-rule: evenodd;
      }
    </style>
  </defs>
  <path id="Color_Fill_1" data-name="Color Fill 1" class="cls-1" d="M1130,76l76,1q12.495,30,25,60c-3.7,50.158-54.72,123.452-71,170-21.95,62.755-17.77,158.433-71,189l-96,15q0.5,1,1,2c73.24,39.772,125.6,111.659,100,213q-4.995,25.5-10,51c-18.45,29.691-108.469,101.511-140,114H898c-127.519-.01-166.148-146.494-213-230l-3,1c6.614,26.753,1.476,156.4-19,158-32.74-41.871-4.065-101.614-20-159h-2c-4.882,21.328-90.08,178.616-104,190-32.854,26.867-58.6,41-120,41H384c-32.161-11.846-122.752-85.344-141-114q-10.5-53-21-106l24-88c20.84-31.2,58.922-48.61,88-72l-97-16c-37.745-24.039-45.5-83.952-58-136q-6-26.5-12-53c-12.444-24.968-75.127-146.318-71-172l26-58h76l56,31,93,47c83.741,52.221,148.5,123.03,215,194,28.73,30.66,57.246,56.891,77,97,9.494-16.243-11.954-25.036-4-48l19-24,23,1c26.367,36.673,2.953,42.223,8,68l4,2c6.74-40.058,55.6-74.289,81-103,60.942-68.886,129.838-137.182,209-187ZM124,80l-23,55,1,1,237,20L196,80H124Zm1005,0L989,154l237-20q-11.505-27-23-54h-74Zm74,59L981,160q0.5,29,1,58l224-78Zm15,1L982,223q1.5,67.994,3,136l3-1Q1102.99,249.012,1218,140ZM347,161L118,141v1l226,77q1-3.5,2-7Q346.5,186.5,347,161Zm877-19L994,358q80.985-25.5,162-51C1167.89,299.05,1224.17,162.094,1224,142ZM102,143c8.374,32.246,48.9,145.479,67,163l95,31,73,24Zm7,0L340,359l1-3q2-66.494,4-133Zm867,19L842,267l137-47Q977.5,191,976,162Zm-625,1q-1,29-2,58l133,44Zm-2,62q-2,66.993-4,134l141-86v-1Zm626,0L842,272q0.5,1,1,2l138,84v-2C983.471,346.475,979.064,227.4,975,225ZM836,275q-9.5,62.994-19,126l161-39Zm-348,1L348,364l163,38v-1Zm5,0q11,63.494,22,127l114,25-1-1Zm339,0L697,428l116-27Q822.5,338.506,832,276ZM171,311q16,67.493,32,135l132-80Zm981,0q-80.985,26-162,52,66.99,42,134,84,16.005-67.994,32-136h-4ZM337,508q2-70.492,4-141L204,451l1,1,35,41ZM980,367L809,461l175,47h1Q982.5,437.508,980,367Zm5,0q1.5,70.493,3,141,48.99-7.5,98-15,17.505-20,35-40v-3Zm-630,2,166,90q-4.5-26.5-9-53Zm610,0L815,406l-7,51,113-62C930.381,390,965,369,965,369Zm-620,1q-2,68.993-4,138h1l173-47Zm309,8-14,21c19.957,6.871,26.985,6.073,47,0q-0.5-2-1-4l-11-17H654Zm-16,25v12h1l17-6Zm47,0-14,6,18,6V403h-4Zm125,3L704,432l99,27,1-1Q807,432,810,406Zm-294,1q4.5,26,9,52l97-27Zm146,4-23,9c13.194,19.276-2.767,24.343,1,35l22,16,25-18c-7.451-13.6-6.3-20.3,1-34Zm-32,23L527,463l85,45C617.366,484.89,643.832,450.044,630,434Zm64,1c-8.083,34.463,14.834,26.444,21,72l82-44v-1Zm-7,22-21,16,43,32C713.148,487.515,696.481,465.519,687,457Zm-49,2c-9.18,13.858-19.243,23.353-21,45l3-1,38-31Zm-120,5L359,508H602Zm284,0-79,44H966ZM662,476l-46,34v3l46,34,49-36ZM351,512l181,83,75-82Zm367,0,77,84,180-83Zm269,1-44,77,131-6C1058.33,556,1017.02,526.473,987,513Zm-650,1c-27.286,25.178-67.257,38.51-86,72l132,5Zm7,1,44,76,130,4Zm636,0L807,595l131-5Q959,552.5,980,515Zm-269,1-45,33v1l29,20C699.625,567.459,715.891,522.188,711,516Zm-102,1-74,81,109,49C634.056,598.278,618.719,557.826,609,517Zm5,0c-2,17.769,9.411,39.821,18,52l27-19Zm103,2c1.431,20.409-13.888,36.943-20,54l-14,74,108-50-1-1Zm-55,33-28,21,2,3,27,41,2-1,27-43Zm-26,33q5.5,28.5,11,57C665.051,621.389,654.677,603.642,636,585Zm53,0-23,38,13,19,2-2Q685,612.5,689,585Zm361,3-110,6-53,91q91.491-48.5,183-97h-20Zm-792,2,181,94c-15.9-18.96-36.886-79.3-56-89Zm816,0L886,691l151,63q19.005-78.492,38-157C1075.93,591.616,1077.5,592.438,1074,590Zm-824,2q19.5,81.492,39,163l150-63Zm667,2-118,7,1,1,79,85h2l54-93H917Zm-526,1,54,92,81-86Zm-145,1q-10.5,39.5-21,79l20,97,1,1,39-16Q265.5,676.509,246,596Zm833,0q-19.005,79.992-38,160l40,17c13.24-58.972,22.64-90.909,7-147Zm-546,6q1,53.495,2,107l105-59Zm256,0L685,650v1l105,58q1.5-53.495,3-107h-4Zm-261,2-81,87,29,50,56-30Q530,657.506,528,604Zm268,0q-1,53.994-2,108l55,30,29-52ZM663,625l-15,22,15,29h1q7.5-14,15-28Zm-24,30L535,714q2,63.493,4,127l79-140Zm48,1c16.8,49.287,69.57,142.351,100,183q1.5-62.994,3-126Zm-9,1-12,24,12,22V657Zm-31,1q1,22,2,44c7.783-10.184,12.112-18.08,8-30Zm13,32c-11.092,20.969-24.1,105.528,3,123Q661.5,751.506,660,690Zm5,1q0.5,60.995,1,122C686.833,796.963,683.025,706.013,665,691Zm-231,6L290,759l17,75,3-1Zm7,0L318,829l133-73Zm441,0q-3.5,29.5-7,59l132,74Zm8,0,127,138q9-39,18-78Zm-13,3-25,44,19,10q0.5-1,1-2Q874.5,726,877,700Zm-430,1q4,26.5,8,53l18-10Zm83,15-51,29,2,3,54,90Q532.5,777.006,530,716Zm264,0q-1.5,60.493-3,121l55-92ZM474,747l-19,11q9,63.993,18,128l6-2,55-36Zm376,0L792,847l62,39q8-63.993,16-128Zm190,13q-8.505,35.5-17,71l3-1q26.49-26.5,53-53v-1Zm-756,1-36,16q0.5,1,1,2l54,52Q293.5,796,284,761ZM469,888L452,761h-1L311,839v1l73,48h85ZM874,761q-8,63.493-16,127c83.438,1.267,114.856-10.362,157-49Z"/>
</svg>
