<?xml version="1.0" encoding="utf-8"?>
<!-- Generator: Adobe Illustrator 25.2.3, SVG Export Plug-In . SVG Version: 6.00 Build 0)  -->
<svg version="1.1" id="Layer_1" xmlns="http://www.w3.org/2000/svg" xmlns:xlink="http://www.w3.org/1999/xlink" x="0px" y="0px"
	 viewBox="0 0 1322 1072" style="enable-background:new 0 0 1322 1072;" xml:space="preserve">
<style type="text/css">
	.st0{opacity:0.25;fill-rule:evenodd;clip-rule:evenodd;fill:#FFCB77;}
</style>
<path id="Color_Fill_1" class="st0" d="M1130,76l76,1c8.3,20,16.7,40,25,60c-3.7,50.2-54.7,123.5-71,170
	c-21.9,62.8-17.8,158.4-71,189l-96,15c0.3,0.7,0.7,1.3,1,2c73.2,39.8,125.6,111.7,100,213c-3.3,17-6.7,34-10,51
	c-18.4,29.7-108.5,101.5-140,114h-46c-127.5,0-166.1-146.5-213-230l-3,1c6.6,26.8,1.5,156.4-19,158c-32.7-41.9-4.1-101.6-20-159h-2
	c-4.9,21.3-90.1,178.6-104,190c-32.9,26.9-58.6,41-120,41h-33c-32.2-11.8-122.8-85.3-141-114c-7-35.3-14-70.7-21-106l24-88
	c20.8-31.2,58.9-48.6,88-72l-97-16c-37.7-24-45.5-84-58-136c-4-17.7-8-35.3-12-53c-12.4-25-75.1-146.3-71-172l26-58h76l56,31l93,47
	c83.7,52.2,148.5,123,215,194c28.7,30.7,57.2,56.9,77,97c9.5-16.2-12-25-4-48l19-24l23,1c26.4,36.7,3,42.2,8,68l4,2
	c6.7-40.1,55.6-74.3,81-103c60.9-68.9,129.8-137.2,209-187L1130,76z M124,80l-23,55l1,1l237,20L196,80H124z M1129,80l-140,74l237-20
	c-7.7-18-15.3-36-23-54H1129z M1203,139l-222,21c0.3,19.3,0.7,38.7,1,58l224-78L1203,139z M1218,140l-236,83c1,45.3,2,90.7,3,136
	l3-1C1064.7,285.3,1141.3,212.7,1218,140z M347,161l-229-20v1l226,77c0.7-2.3,1.3-4.7,2-7C346.3,195,346.7,178,347,161z M1224,142
	L994,358c54-17,108-34,162-51C1167.9,299,1224.2,162.1,1224,142z M102,143c8.4,32.2,48.9,145.5,67,163l95,31l73,24L102,143z
	 M109,143l231,216l1-3c1.3-44.3,2.7-88.7,4-133L109,143z M976,162L842,267l137-47C978,200.7,977,181.3,976,162z M351,163
	c-0.7,19.3-1.3,38.7-2,58l133,44L351,163z M349,225c-1.3,44.7-2.7,89.3-4,134l141-86v-1L349,225z M975,225l-133,47
	c0.3,0.7,0.7,1.3,1,2l138,84v-2C983.5,346.5,979.1,227.4,975,225z M836,275c-6.3,42-12.7,84-19,126l161-39L836,275z M488,276
	l-140,88l163,38v-1L488,276z M493,276c7.3,42.3,14.7,84.7,22,127l114,25l-1-1L493,276z M832,276L697,428l116-27
	C819.3,359.3,825.7,317.7,832,276z M171,311c10.7,45,21.3,90,32,135l132-80L171,311z M1152,311c-54,17.3-108,34.7-162,52
	c44.7,28,89.3,56,134,84c10.7-45.3,21.3-90.7,32-136H1152z M337,508c1.3-47,2.7-94,4-141l-137,84l1,1l35,41L337,508z M980,367
	l-171,94l175,47h1C983.3,461,981.7,414,980,367z M985,367c1,47,2,94,3,141c32.7-5,65.3-10,98-15c11.7-13.3,23.3-26.7,35-40v-3
	L985,367z M355,369l166,90c-3-17.7-6-35.3-9-53L355,369z M965,369l-150,37l-7,51l113-62C930.4,390,965,369,965,369z M345,370
	c-1.3,46-2.7,92-4,138h1l173-47L345,370z M654,378l-14,21c20,6.9,27,6.1,47,0c-0.3-1.3-0.7-2.7-1-4l-11-17H654z M638,403v12h1l17-6
	L638,403z M685,403l-14,6l18,6v-12H685z M810,406l-106,26l99,27l1-1C806,440.7,808,423.3,810,406z M516,407c3,17.3,6,34.7,9,52
	l97-27L516,407z M662,411l-23,9c13.2,19.3-2.8,24.3,1,35l22,16l25-18c-7.5-13.6-6.3-20.3,1-34L662,411z M630,434l-103,29l85,45
	C617.4,484.9,643.8,450,630,434z M694,435c-8.1,34.5,14.8,26.4,21,72l82-44v-1L694,435z M687,457l-21,16l43,32
	C713.1,487.5,696.5,465.5,687,457z M638,459c-9.2,13.9-19.2,23.4-21,45l3-1l38-31L638,459z M518,464l-159,44h243L518,464z M802,464
	l-79,44h243L802,464z M662,476l-46,34v3l46,34l49-36L662,476z M351,512l181,83l75-82L351,512z M718,512l77,84l180-83L718,512z
	 M987,513l-44,77l131-6C1058.3,556,1017,526.5,987,513z M337,514c-27.3,25.2-67.3,38.5-86,72l132,5L337,514z M344,515l44,76l130,4
	L344,515z M980,515l-173,80l131-5C952,565,966,540,980,515z M711,516l-45,33v1l29,20C699.6,567.5,715.9,522.2,711,516z M609,517
	l-74,81l109,49C634.1,598.3,618.7,557.8,609,517z M614,517c-2,17.8,9.4,39.8,18,52l27-19L614,517z M717,519
	c1.4,20.4-13.9,36.9-20,54l-14,74l108-50l-1-1L717,519z M662,552l-28,21l2,3l27,41l2-1l27-43L662,552z M636,585c3.7,19,7.3,38,11,57
	C665.1,621.4,654.7,603.6,636,585z M689,585l-23,38l13,19l2-2C683.7,621.7,686.3,603.3,689,585z M1050,588l-110,6l-53,91
	c61-32.3,122-64.7,183-97H1050z M258,590l181,94c-15.9-19-36.9-79.3-56-89L258,590z M1074,590L886,691l151,63
	c12.7-52.3,25.3-104.7,38-157C1075.9,591.6,1077.5,592.4,1074,590z M250,592c13,54.3,26,108.7,39,163l150-63L250,592z M917,594
	l-118,7l1,1l79,85h2l54-93H917z M391,595l54,92l81-86L391,595z M246,596c-7,26.3-14,52.7-21,79l20,97l1,1l39-16
	C272,703.3,259,649.7,246,596z M1079,596c-12.7,53.3-25.3,106.7-38,160l40,17c13.2-59,22.6-90.9,7-147L1079,596z M533,602
	c0.7,35.7,1.3,71.3,2,107l105-59L533,602z M789,602l-104,48v1l105,58c1-35.7,2-71.3,3-107H789z M528,604l-81,87l29,50l56-30
	C530.7,675.3,529.3,639.7,528,604z M796,604c-0.7,36-1.3,72-2,108l55,30l29-52L796,604z M663,625l-15,22l15,29h1
	c5-9.3,10-18.7,15-28L663,625z M639,655l-104,59c1.3,42.3,2.7,84.7,4,127l79-140L639,655z M687,656c16.8,49.3,69.6,142.4,100,183
	c1-42,2-84,3-126L687,656z M678,657l-12,24l12,22V657z M647,658c0.7,14.7,1.3,29.3,2,44c7.8-10.2,12.1-18.1,8-30L647,658z M660,690
	c-11.1,21-24.1,105.5,3,123C662,772,661,731,660,690z M665,691c0.3,40.7,0.7,81.3,1,122C686.8,797,683,706,665,691z M434,697
	l-144,62l17,75l3-1L434,697z M441,697L318,829l133-73L441,697z M882,697c-2.3,19.7-4.7,39.3-7,59l132,74L882,697z M890,697l127,138
	c6-26,12-52,18-78L890,697z M877,700l-25,44l19,10c0.3-0.7,0.7-1.3,1-2C873.7,734.7,875.3,717.3,877,700z M447,701
	c2.7,17.7,5.3,35.3,8,53l18-10L447,701z M530,716l-51,29l2,3l54,90C533.3,797.3,531.7,756.7,530,716z M794,716c-1,40.3-2,80.7-3,121
	l55-92L794,716z M474,747l-19,11c6,42.7,12,85.3,18,128l6-2l55-36L474,747z M850,747l-58,100l62,39c5.3-42.7,10.7-85.3,16-128
	L850,747z M1040,760c-5.7,23.7-11.3,47.3-17,71l3-1c17.7-17.7,35.3-35.3,53-53v-1L1040,760z M284,761l-36,16c0.3,0.7,0.7,1.3,1,2
	l54,52C296.7,807.7,290.3,784.3,284,761z M469,888l-17-127h-1l-140,78v1l73,48H469z M874,761c-5.3,42.3-10.7,84.7-16,127
	c83.4,1.3,114.9-10.4,157-49L874,761z"/>
</svg>
